<?xml version="1.0" encoding="UTF-8"?>
<svg width="90px" height="90px" viewBox="0 0 90 90" version="1.1" xmlns="http://www.w3.org/2000/svg" xmlns:xlink="http://www.w3.org/1999/xlink">
    <!-- Generator: sketchtool 54.1 (76490) - https://sketchapp.com -->
    <title>5D28C727-27BF-4F98-91FE-6275E3606ECD</title>
    <desc>Created with sketchtool.</desc>
    <g id="Symbol" stroke="none" stroke-width="1" fill="none" fill-rule="evenodd">
        <g id="Icon-/-Card-/-Large-/-Arrival" fill="#333333">
            <path d="M50.4653541,36.7366615 L62.4173042,36.7366615 L62.4173042,40.7722309 C62.4173042,41.4611544 62.9758066,42.0202808 63.6653541,42.0202808 C64.3542777,42.0202808 64.9134041,41.4611544 64.9134041,40.7722309 L64.9134041,35.4886115 C64.9134041,34.799688 64.3542777,34.2405616 63.6653541,34.2405616 L50.4653541,34.2405616 C49.7764306,34.2405616 49.2173042,34.799688 49.2173042,35.4886115 C49.2173042,36.1775351 49.7764306,36.7366615 50.4653541,36.7366615 M31.3152761,36.7366615 L43.2666022,36.7366615 L43.2666022,40.7722309 C43.2666022,41.4611544 43.8257286,42.0202808 44.5146521,42.0202808 C45.2041997,42.0202808 45.762702,41.4611544 45.762702,40.7722309 L45.762702,35.4886115 C45.762702,34.799688 45.2041997,34.2405616 44.5146521,34.2405616 L31.3152761,34.2405616 C30.6257286,34.2405616 30.0672262,34.799688 30.0672262,35.4886115 C30.0672262,36.1775351 30.6257286,36.7366615 31.3152761,36.7366615 M73.7221404,60.4801872 C72.9433573,60.5369735 72.1789267,60.2480499 71.6198003,59.6895476 L66.4690983,54.5382215 C65.9848549,54.0533541 65.1973354,54.050858 64.7093479,54.5338534 L59.5336849,59.6895476 C58.462858,60.7603744 56.7854789,60.7603744 55.7134041,59.6895476 L50.562702,54.5382215 C50.0946833,54.0702028 49.2659782,54.0702028 48.7979594,54.5382215 L43.6472574,59.6889236 C42.5758066,60.7609984 40.8978034,60.7603744 39.8263526,59.6895476 L34.6756505,54.5382215 C34.4416412,54.3042122 34.1240125,54.1725429 33.7932793,54.1725429 C33.462546,54.1725429 33.1449173,54.3042122 32.910908,54.5382215 L27.7602059,59.6889236 C26.6887551,60.7603744 25.010752,60.7603744 23.9399251,59.6895476 L18.7885991,54.5382215 C18.3018596,54.050858 17.5105959,54.050858 17.0238565,54.5382215 L11.8731544,59.6895476 C11.2403931,60.3216849 10.3430452,60.6031201 9.47502652,60.4427457 C8.79858347,60.3191888 8.14647738,60.7653666 8.02104837,61.4430577 C7.89561935,62.1207488 8.34366927,62.7722309 9.02136038,62.8970359 C10.6981154,63.2059282 12.4247925,62.6680187 13.637897,61.4542902 L17.9062278,57.1859594 L22.1751825,61.4542902 C24.2001435,63.4798752 27.4974914,63.4804992 29.5249485,61.4542902 L33.7932793,57.1859594 L38.06161,61.4542902 C40.087819,63.4798752 43.385791,63.4804992 45.412,61.4542902 L49.6803307,57.1859594 L53.9486615,61.4542902 C55.9754945,63.4804992 59.2722184,63.4804992 61.2984275,61.4542902 L65.5823588,57.1815913 L69.8550577,61.4542902 C70.8385211,62.4371295 72.161454,62.9837754 73.5318128,62.9837754 C73.6541217,62.9837754 73.7770546,62.9787832 73.8999875,62.9706708 C74.587039,62.9207488 75.1049797,62.3235569 75.0556818,61.6365055 C75.0063838,60.949454 74.412312,60.4346334 73.7221404,60.4801872 M9.25100156,54.8876755 C9.94054915,54.8876755 10.4990515,54.3291732 10.4990515,53.6396256 L10.4990515,29.5135725 L16.8978034,29.49922 L16.8884431,35.4542902 C16.887819,35.7856474 17.0188643,36.1032761 17.2528736,36.3379095 C17.487507,36.5725429 17.8051357,36.7042122 18.136493,36.7042122 L24.1140281,36.7042122 L24.1421092,46.6973479 C24.1439813,47.3850234 24.7024836,47.9422777 25.3901591,47.9422777 L62.0035757,47.9422777 C61.3059158,49.7700468 59.8132481,52.7878315 57.1261966,54.4826833 C56.5433573,54.850234 56.3686303,55.6209048 56.736805,56.2037441 C56.9739345,56.5800312 57.3789267,56.7865835 57.7932793,56.7865835 C58.0210484,56.7865835 58.2513136,56.724181 58.4578658,56.5937598 C63.3502215,53.5073323 64.8709704,47.2446178 64.9333729,46.9800312 C65.0207364,46.6087363 64.9333729,46.2174727 64.6968674,45.9191888 C64.4597379,45.6202808 64.0996755,45.4461778 63.7183963,45.4461778 L26.6350889,45.4461778 L26.6063838,35.4524181 C26.6045117,34.7647426 26.0466334,34.2081123 25.3583339,34.2081123 L19.386415,34.2081123 L19.3957754,28.249922 C19.3963994,27.9179407 19.2647301,27.599688 19.0300967,27.3650546 C18.7960874,27.1310452 18.4790827,27 18.1477254,27 L18.1452293,27 L9.24788144,27.0205928 C8.56020593,27.0224649 8.00295164,27.5809672 8.00295164,28.2686427 L8.00295164,53.6396256 C8.00295164,54.3291732 8.56207801,54.8876755 9.25100156,54.8876755 M81.5992075,35.4892356 L81.5992075,61.7519501 C81.5992075,62.4414977 81.0400811,63 80.3511576,63 C79.66161,63 79.1031076,62.4414977 79.1031076,61.7519501 L79.1031076,35.4892356 C79.1031076,34.799688 79.66161,34.2411856 80.3511576,34.2411856 C81.0400811,34.2411856 81.5992075,34.799688 81.5992075,35.4892356" id="Arrival-Icon"></path>
        </g>
    </g>
</svg>