<?xml version="1.0" encoding="UTF-8"?>
<svg width="90px" height="90px" viewBox="0 0 90 90" version="1.1" xmlns="http://www.w3.org/2000/svg" xmlns:xlink="http://www.w3.org/1999/xlink">
    <!-- Generator: sketchtool 54.1 (76490) - https://sketchapp.com -->
    <title>EEA14934-C71D-47E4-A998-CDE0B4959E2F</title>
    <desc>Created with sketchtool.</desc>
    <g id="Symbol" stroke="none" stroke-width="1" fill="none" fill-rule="evenodd">
        <g id="Icon-/-Card-/-Large-/-Departure" fill="#333333">
            <path d="M70.6354171,36.8953313 L82.6210577,36.8953313 L82.6210577,41.2523343 C82.6210577,41.9969196 83.1817894,42.6 83.872691,42.6 C84.5642184,42.6 85.1243243,41.9969196 85.1243243,41.2523343 L85.1243243,35.5476657 C85.1243243,34.8037542 84.5642184,34.2 83.872691,34.2 L70.6354171,34.2 C69.9445155,34.2 69.3837838,34.8037542 69.3837838,35.5476657 C69.3837838,36.2915771 69.9445155,36.8953313 70.6354171,36.8953313 M51.2623944,36.8953313 L63.2481842,36.8953313 L63.2481842,41.2523343 C63.2481842,41.9969196 63.8082679,42.6 64.4997678,42.6 C65.1906419,42.6 65.7513514,41.9969196 65.7513514,41.2523343 L65.7513514,35.5476657 C65.7513514,34.8037542 65.1906419,34.2 64.4997678,34.2 L51.2623944,34.2 C50.5708945,34.2 50.0108108,34.8037542 50.0108108,35.5476657 C50.0108108,36.2915771 50.5708945,36.8953313 51.2623944,36.8953313 M77.7173361,60.6136634 C76.9279909,60.6678037 76.1575749,60.3917478 75.5928555,59.8592693 L70.3848179,54.9485681 C69.8932913,54.4851036 69.0995293,54.4839137 68.6042168,54.9444035 L63.3715713,59.8592693 C62.2888244,60.8802001 60.5921424,60.8802001 59.5087646,59.8592693 L54.301358,54.9485681 C53.8281295,54.5023571 52.9895685,54.5023571 52.51634,54.9485681 L47.3083024,59.8592693 C46.2255556,60.8807951 44.5282426,60.8802001 43.4448648,59.8592693 L38.2374582,54.9485681 C37.7642296,54.5023571 36.9256687,54.5023571 36.4524402,54.9485681 L31.2450336,59.8592693 C30.1616557,60.8807951 28.4649738,60.8802001 27.3815959,59.8592693 L22.1735583,54.9485681 C21.6801387,54.4839137 20.88196,54.4839137 20.3885404,54.9485681 L15.1805028,59.8592693 C14.5406978,60.4619516 13.633361,60.732058 12.7563108,60.5779665 C12.0710759,60.4607617 11.4129728,60.8855546 11.2861475,61.5316682 C11.1593223,62.1777818 11.6123597,62.7989076 12.2975946,62.9178972 C13.9936456,63.2123965 15.7376505,62.6989563 16.9648898,61.5417823 L21.2807339,57.4729327 L25.5972089,61.5417823 C27.645342,63.4735786 30.9800256,63.4735786 33.0294206,61.5417823 L37.3446337,57.4729327 L41.6604778,61.5423773 C43.7098728,63.4735786 47.0439254,63.4735786 49.0933204,61.5417823 L53.4085335,57.4729327 L57.7243776,61.5423773 C59.7737726,63.4735786 63.1084562,63.4735786 65.1565893,61.5417823 L69.4875767,57.4681731 L73.8084685,61.5423773 C74.8028794,62.4794205 76.1399077,63 77.5248898,63 C77.6485602,63 77.7734926,62.9958354 77.8984249,62.9875061 C78.5937553,62.9405052 79.1168306,62.370545 79.0669838,61.7155072 C79.0158752,61.0598744 78.4170833,60.572612 77.7173361,60.6136634 M84.8488225,46.0549713 C84.6075218,45.753928 84.2401589,45.5785813 83.8505123,45.5785813 L46.0153199,45.5785813 L45.9860327,35.5134286 C45.9841227,34.8208405 45.4142964,34.2602338 44.7126779,34.2602338 L38.6196749,34.2602338 L38.6298618,28.2594796 C38.6304984,27.9251267 38.4961595,27.603972 38.2567688,27.3682909 C38.0180148,27.1326099 37.693946,27 37.3565069,27 L37.3533235,27 L28.2755769,27.0213684 C27.5739583,27.0226254 27.0054054,27.5851175 27.0054054,28.2783341 L27.0054054,53.830561 C27.0054054,54.5250346 27.5758684,55.0875267 28.2787602,55.0875267 C28.9822888,55.0875267 29.5521151,54.5250346 29.5521151,53.830561 L29.5521151,29.5321574 L36.0812421,29.5170738 L36.0710552,35.5146855 C36.0704185,35.8490384 36.2047575,36.1689362 36.4435115,36.4052457 C36.6822655,36.6415553 37.0063343,36.7741652 37.3444101,36.7741652 L43.4425064,36.7741652 L43.4717936,46.8386894 C43.4737036,47.5312775 44.0435299,48.0925127 44.7451484,48.0925127 L82.1015594,48.0925127 C81.3897541,49.9333389 79.866185,52.9720535 77.124652,54.6796413 C76.5299953,55.0498177 76.3517256,55.8259941 76.7273653,56.412997 C76.9693027,56.7919722 77.3825064,57 77.8052602,57 C78.0370108,57 78.2732181,56.9371517 78.4839583,56.8057988 C83.4748726,53.6973227 85.0264555,47.3898689 85.0907599,47.1233921 C85.1792581,46.7494448 85.0907599,46.3553861 84.8488225,46.0549713 M6.42162162,35.4498101 L6.42162162,61.7501899 C6.42162162,62.4400851 5.87917838,63 5.21081081,63 C4.54244324,63 4,62.4400851 4,61.7501899 L4,35.4498101 C4,34.7599149 4.54244324,34.2 5.21081081,34.2 C5.87917838,34.2 6.42162162,34.7599149 6.42162162,35.4498101" id="Icon-Departure-"></path>
        </g>
    </g>
</svg>