<?xml version="1.0" encoding="UTF-8"?>
<svg width="90px" height="90px" viewBox="0 0 90 90" version="1.1" xmlns="http://www.w3.org/2000/svg" xmlns:xlink="http://www.w3.org/1999/xlink">
    <!-- Generator: sketchtool 54.1 (76490) - https://sketchapp.com -->
    <title>BD4D29D2-8486-4948-B89C-F4EACDBD32B2</title>
    <desc>Created with sketchtool.</desc>
    <g id="Symbol" stroke="none" stroke-width="1" fill="none" fill-rule="evenodd">
        <g id="Icon-/-Card-/-Large-/-Tanks" fill="#333333">
            <path d="M68.4907065,36.0021801 L21.9746952,36.0021801 C21.8863302,36.0143884 21.7956399,36.0172951 21.7049495,36.0097376 C20.8898991,36.2027453 18.9644732,38.2124667 18.9644732,45.5304804 C18.9644732,52.8758175 20.9050141,54.8727493 21.7142511,55.0529673 C21.7764554,55.0488979 21.839241,55.0518046 21.9020266,55.0581994 L68.4540816,55.0581994 C68.805216,54.9378603 71.2945499,53.7908599 71.2945499,45.5269923 C71.2945499,37.1404602 68.7209205,36.0760113 68.4907065,36.0021801 M68.6796447,33.6814372 C69.1848365,33.7256197 73.6199435,34.4383528 73.6199435,45.5269923 C73.6199435,56.6150505 69.1865805,57.3330157 68.6813888,57.3789423 C68.6465079,57.381849 68.611627,57.3835931 68.5767461,57.3835931 L21.7671538,57.3835931 L21.762503,57.3835931 C21.7520388,57.3835931 21.7392491,57.3841744 21.7293662,57.3841744 C21.6683246,57.3841744 21.634025,57.3812677 21.634025,57.3812677 C21.6276302,57.3806863 21.6212354,57.3789423 21.6148405,57.3783609 C20.7294469,57.3155753 16.6390795,56.4505289 16.6390795,45.5304804 C16.6390795,34.0593137 21.1555753,33.6820186 21.6700686,33.6767864 L21.7671538,33.6767864 L68.5767461,33.6767864 C68.6110456,33.6767864 68.6453452,33.6779491 68.6796447,33.6814372 M76.919677,56.2011304 L76.919677,29.3253936 L13.3253936,29.3253936 L13.3253936,60.6746064 L78.0823738,60.6746064 C78.7247638,60.6746064 79.2450706,61.1949132 79.2450706,61.8373032 C79.2450706,62.4791118 78.7247638,63 78.0823738,63 L12.1626968,63 C11.5208882,63 11,62.4791118 11,61.8373032 L11,28.1626968 C11,27.5208882 11.5208882,27 12.1626968,27 L78.0823738,27 C78.7247638,27 79.2450706,27.5208882 79.2450706,28.1626968 L79.2450706,56.2011304 C79.2450706,56.8435204 78.7247638,57.3638272 78.0823738,57.3638272 C77.4405652,57.3638272 76.919677,56.8435204 76.919677,56.2011304" id="Icon-Container"></path>
        </g>
    </g>
</svg>