<?xml version="1.0" encoding="UTF-8"?>
<svg width="41px" height="35px" viewBox="0 0 41 35" version="1.1" xmlns="http://www.w3.org/2000/svg" xmlns:xlink="http://www.w3.org/1999/xlink">
    <!-- Generator: sketchtool 54.1 (76490) - https://sketchapp.com -->
    <title>2A0C74C1-3CA3-4719-9688-825EB3E3612C</title>
    <desc>Created with sketchtool.</desc>
    <g id="Email" stroke="none" stroke-width="1" fill="none" fill-rule="evenodd">
        <g id="A4-Quote-Confirmation---Pg1" transform="translate(-526.000000, -20.000000)">
            <g id="Logo" transform="translate(526.000000, 20.000000)">
                <polygon id="Fill-1" fill="#FFFFFF" points="0.96460177 34.2 41 34.2 41 0 0.96460177 0"></polygon>
                <g id="Group-6" transform="translate(5.000000, 3.420000)" fill="#C8102E">
                    <path d="M7.26801762,17.8393185 C7.26801762,17.8393185 11.5353268,17.8333335 11.5396441,17.8393185 C11.5629581,20.4248385 13.4125283,22.9821435 16.6048071,22.9547835 C19.8160825,22.9889835 20.8358502,21.2764185 20.8349867,20.0187135 C20.8315328,15.0879285 6.62904377,17.3211885 6.64026899,8.7190335 C6.64631333,3.5180685 10.1537617,1.1702385 13.484197,0.5452335 L0.305793099,0.5264235 L0.27729832,26.8236585 L7.26801762,26.8236585 L7.26801762,17.8393185 Z M25.3501141,0.5366835 L32.1387795,0.5366835 L32.1586395,26.8339185 L20.6527928,26.8142535 C23.791536,26.0618535 27.0433948,22.9274235 27.0520296,18.5241735 C27.0692991,9.1431135 12.5861797,12.3100335 12.552504,6.4404585 C12.5473232,5.4016335 13.6180361,3.8899935 16.5599063,3.8968335 C19.2107842,3.9147885 21.0353136,5.7017385 21.0171806,8.3864385 C21.0206345,8.3924235 25.3501141,8.3864385 25.3501141,8.3864385 L25.3501141,0.5366835 Z" id="Fill-4"></path>
                </g>
            </g>
        </g>
    </g>
</svg>